<?xml version="1.0" encoding="UTF-8"?>
<svg version="1.1" xmlns="http://www.w3.org/2000/svg" width="382" height="369">
<path d="M0 0 C0.76161438 -0.00100708 1.52322876 -0.00201416 2.30792236 -0.00305176 C23.53607309 0.01597239 45.45340502 2.43367748 61.8359375 17.34765625 C66.92294862 22.95257575 68.67634346 29.44234313 68.75537109 36.85766602 C68.76763733 37.85835365 68.76763733 37.85835365 68.78015137 38.8792572 C68.80496197 41.08746459 68.82151583 43.29560757 68.8359375 45.50390625 C68.84126118 46.26095289 68.84658485 47.01799953 68.85206985 47.79798698 C68.87879077 51.81005718 68.8981635 55.82209648 68.91259766 59.83422852 C68.92589965 63.14082737 68.95368315 66.44680363 68.99462891 69.75317383 C69.04420803 73.75730606 69.06874998 77.76087665 69.07582474 81.76530266 C69.08249825 83.28382436 69.09761758 84.80233547 69.12171555 86.32068062 C69.25705655 95.36902438 68.68513296 102.53197003 63.5625 110.25 C62.840625 111.343125 62.11875 112.43625 61.375 113.5625 C52.04086438 122.48178515 40.6189478 123.50268812 28.30859375 123.3203125 C27.40238281 123.29710937 26.49617187 123.27390625 25.5625 123.25 C25.43294922 121.83460938 25.43294922 121.83460938 25.30078125 120.390625 C24.21925318 110.50803821 22.91272786 99.88214726 15.3125 92.6875 C9.3296766 88.30698783 2.4957137 86.5746848 -4.87109375 86.83984375 C-9.61588693 87.59814403 -13.62677851 89.32377866 -17.4375 92.25 C-19.61626168 96.30700451 -19.62982523 98.27088973 -18.75 102.75 C-14.3054763 111.42191952 -1.03226476 115.60301783 7.44219971 119.61712646 C9.48620406 120.58557599 11.52545234 121.56350557 13.56396484 122.54345703 C19.62125364 125.45003582 25.6929351 128.32137556 31.796875 131.12890625 C62.16635688 145.13819223 62.16635688 145.13819223 69 161.5625 C72.44055307 172.16592863 70.709046 181.31098946 66.23046875 191.1875 C64.50631151 194.35316574 62.62159166 196.72491386 60.1875 199.375 C59.43726563 200.20257813 58.68703125 201.03015625 57.9140625 201.8828125 C47.55134862 212.31438162 35.43460601 216.69380333 21.5625 220.25 C20.65588623 220.52154907 20.65588623 220.52154907 19.73095703 220.79858398 C14.44134851 221.89974208 8.8172271 221.43484203 3.4375 221.4375 C2.15617188 221.44974609 0.87484375 221.46199219 -0.4453125 221.47460938 C-7.69151547 221.48574596 -14.40928217 221.06941984 -21.4375 219.25 C-8.75484425 227.51097193 3.54505581 230.35684928 18.75 227.4375 C20.35760195 227.05585791 21.9618665 226.6598867 23.5625 226.25 C24.40941406 226.06695312 25.25632813 225.88390625 26.12890625 225.6953125 C44.38790124 221.38969796 60.81867046 210.08747688 70.8125 194.25 C76.41853613 185.08744632 76.72002632 174.68171106 75.5625 164.25 C72.43964998 152.04005849 64.44990854 142.15146102 53.828125 135.55078125 C52.05419049 134.51598612 50.26845512 133.50101449 48.46875 132.51171875 C47.8396875 132.09535156 47.210625 131.67898437 46.5625 131.25 C46.5625 130.59 46.5625 129.93 46.5625 129.25 C47.34753906 128.88648438 48.13257813 128.52296875 48.94140625 128.1484375 C60.78494946 122.4809751 66.88295248 116.9523196 72.61767578 105.06225586 C73.79808115 101.54879606 73.8706316 98.49437739 73.94140625 94.7890625 C73.95840073 94.08026947 73.9753952 93.37147644 73.99290466 92.64120483 C74.04576523 90.38589281 74.08616867 88.13059358 74.125 85.875 C74.16920382 83.6266442 74.21618021 81.37841638 74.26780701 79.13021851 C74.313956 77.08514422 74.35167255 75.03988476 74.38891602 72.99462891 C74.55883982 69.32895901 74.98141917 65.86763068 75.5625 62.25 C79.68725481 62.13248562 83.81157118 62.06231176 87.9375 62 C89.09378906 61.96648437 90.25007812 61.93296875 91.44140625 61.8984375 C103.15303548 61.76610271 110.84957581 64.64536706 119.30859375 72.7734375 C137.6963465 92.97765802 137.52824466 123.18547849 136.45849609 148.73388672 C135.42069912 165.49336437 129.54029089 182.8732415 117.25 194.6875 C109.56312091 201.09980255 100.80964828 203.39268104 90.94921875 203.34765625 C89.70205078 203.34443359 88.45488281 203.34121094 87.16992188 203.33789062 C85.87634766 203.32951172 84.58277344 203.32113281 83.25 203.3125 C81.28063477 203.30573242 81.28063477 203.30573242 79.27148438 203.29882812 C76.0351099 203.28705949 72.79882822 203.2706176 69.5625 203.25 C69.58606567 204.72424438 69.58606567 204.72424438 69.61010742 206.22827148 C69.66485583 209.91275676 69.69901141 213.59720689 69.72729492 217.28198242 C69.74228013 218.86960926 69.76267546 220.45719543 69.78881836 222.04467773 C69.97782114 233.82585115 70.01320154 243.5312656 61.4921875 252.4765625 C42.40347024 270.01963464 13.67810885 270.12950235 -10.63378906 269.43359375 C-29.9329023 268.50208328 -50.45583616 262.45328501 -63.74609375 247.88671875 C-69.00974291 239.68126105 -68.8980266 230.98708599 -68.87109375 221.50390625 C-68.87566579 220.08340712 -68.88097437 218.66291018 -68.88697815 217.24241638 C-68.89586738 214.27797408 -68.89353439 211.31380178 -68.88354492 208.34936523 C-68.87205948 204.57583943 -68.89228047 200.80325008 -68.92146206 197.02984715 C-68.93992706 194.09989131 -68.93951134 191.17015568 -68.93382454 188.24015617 C-68.93367258 186.85007348 -68.93961142 185.45997465 -68.95211601 184.0699482 C-69.03778386 172.98864264 -67.41406304 164.12926206 -60.4375 155.25 C-52.68394471 147.71797486 -43.05268699 146.10453349 -32.625 146.125 C-31.6050293 146.11919922 -31.6050293 146.11919922 -30.56445312 146.11328125 C-25.56424825 146.12325175 -25.56424825 146.12325175 -24.4375 147.25 C-24.30330332 149.39416479 -24.20588191 151.54066291 -24.125 153.6875 C-23.71023151 160.25020794 -22.34574052 165.38962099 -19.4375 171.25 C-18.93089844 172.34441406 -18.93089844 172.34441406 -18.4140625 173.4609375 C-17.11065778 175.84877495 -15.92853628 176.17279512 -13.4375 177.25 C-11.68746066 178.2657571 -9.95209881 179.30370753 -8.21875 180.34765625 C-2.11005352 183.44219328 5.0468228 182.91824569 11.4375 181 C13.93716301 180.05335624 15.54294447 179.26599998 17.625 177.5625 C19.00433891 174.16013068 19.40369482 170.80686313 18.5625 167.25 C15.88686135 163.41240921 13.43673004 161.30495443 9.28515625 159.19140625 C8.228125 158.64742187 7.17109375 158.1034375 6.08203125 157.54296875 C4.94121094 156.97191406 3.80039063 156.40085938 2.625 155.8125 C1.42933307 155.20382074 0.23402688 154.59443237 -0.9609375 153.984375 C-11.07111776 148.84626652 -21.28319846 143.91037459 -31.52709961 139.04516602 C-61.85831981 124.60142045 -61.85831981 124.60142045 -68.4375 109.25 C-68.79972656 108.46496094 -69.16195312 107.67992187 -69.53515625 106.87109375 C-72.24626508 98.99596809 -70.80882099 90.34619265 -67.70703125 82.81640625 C-63.18867067 73.68236655 -57.14477338 65.8621426 -48.625 60.25 C-47.97337891 59.82066162 -47.32175781 59.39132324 -46.65039062 58.94897461 C-24.98326495 45.21042346 -0.92312644 44.53798941 23.5625 49.25 C13.17987537 41.20145378 1.65127596 37.81183261 -11.4375 39.25 C-21.5748014 40.89289999 -31.18148863 43.77255178 -40.4375 48.25 C-41.35917969 48.69085938 -42.28085938 49.13171875 -43.23046875 49.5859375 C-54.31315797 55.24451789 -63.04332885 62.52316642 -69.4375 73.25 C-69.84742187 73.91773437 -70.25734375 74.58546875 -70.6796875 75.2734375 C-76.2482566 85.23182749 -76.88820728 97.93205429 -74.3125 108.875 C-72.64688994 114.40072056 -69.90006985 118.68274968 -66.4375 123.25 C-65.86 124.11625 -65.2825 124.9825 -64.6875 125.875 C-59.81376009 131.01950324 -53.50751688 134.66662689 -47.4375 138.25 C-48.4375 141.25 -48.4375 141.25 -50.9140625 142.609375 C-51.95304687 143.06828125 -52.99203125 143.5271875 -54.0625 144 C-63.52722283 148.58079112 -68.66729523 154.40792986 -72.4375 164.25 C-75.0271677 172.07429849 -74.88479106 180.09204879 -75.0625 188.25 C-75.10074966 189.70705282 -75.13980527 191.16408471 -75.1796875 192.62109375 C-75.27492506 196.16386926 -75.35922897 199.7068043 -75.4375 203.25 C-79.39557715 203.36761144 -83.35319621 203.43771882 -87.3125 203.5 C-88.42109375 203.53351563 -89.5296875 203.56703125 -90.671875 203.6015625 C-101.94575025 203.73419633 -110.41283291 200.52158371 -118.9375 193.0625 C-133.30073543 176.90386014 -136.61744882 156.15245498 -136.67773438 135.22583008 C-136.68736256 133.21618729 -136.71852598 131.206685 -136.75 129.19726562 C-136.82535104 109.99216896 -132.6950207 88.45595651 -119.3046875 73.9375 C-111.35198677 66.40044565 -103.1357009 63.10779426 -92.265625 63.15234375 C-91.2419986 63.15446617 -91.2419986 63.15446617 -90.19769287 63.15663147 C-88.02758316 63.16220916 -85.8575783 63.17475746 -83.6875 63.1875 C-82.21224108 63.19251789 -80.73698053 63.19708029 -79.26171875 63.20117188 C-75.65361202 63.21217125 -72.04556625 63.22942047 -68.4375 63.25 C-68.4689209 61.82905029 -68.4689209 61.82905029 -68.50097656 60.37939453 C-68.5696942 56.81955984 -68.61955995 53.26044348 -68.65722656 49.70019531 C-68.67717724 48.16785466 -68.70434816 46.63558848 -68.73925781 45.10351562 C-68.97560096 34.45417144 -68.730243 25.09270654 -61.5625 16.5625 C-45.26716132 1.95170055 -20.75093164 0.01894706 0 0 Z " fill="#5B2BDD" transform="translate(191.4375,49.75)"/>
<path d="M0 0 C4.12475481 -0.11751438 8.24907118 -0.18768824 12.375 -0.25 C13.53128906 -0.28351563 14.68757812 -0.31703125 15.87890625 -0.3515625 C27.59053548 -0.48389729 35.28707581 2.39536706 43.74609375 10.5234375 C62.1338465 30.72765802 61.96574466 60.93547849 60.89599609 86.48388672 C59.85819912 103.24336437 53.97779089 120.6232415 41.6875 132.4375 C34.00062091 138.84980255 25.24714828 141.14268104 15.38671875 141.09765625 C14.13955078 141.09443359 12.89238281 141.09121094 11.60742188 141.08789062 C10.31384766 141.07951172 9.02027344 141.07113281 7.6875 141.0625 C5.71813477 141.05573242 5.71813477 141.05573242 3.70898438 141.04882812 C0.4726099 141.03705949 -2.76367178 141.0206176 -6 141 C-5.97643433 142.47424438 -5.97643433 142.47424438 -5.95239258 143.97827148 C-5.89764417 147.66275676 -5.86348859 151.34720689 -5.83520508 155.03198242 C-5.82021987 156.61960926 -5.79982454 158.20719543 -5.77368164 159.79467773 C-5.58467886 171.57585115 -5.54929846 181.2812656 -14.0703125 190.2265625 C-33.15902976 207.76963464 -61.88439115 207.87950235 -86.19628906 207.18359375 C-105.4954023 206.25208328 -126.01833616 200.20328501 -139.30859375 185.63671875 C-144.58476377 177.41174239 -144.44647792 168.72264981 -144.3984375 159.21875 C-144.40046331 157.79585624 -144.40337895 156.37296349 -144.40713501 154.95007324 C-144.41153458 151.98142521 -144.40520448 149.0130497 -144.39111328 146.04443359 C-144.37402247 142.26197357 -144.38387649 138.48015242 -144.40183067 134.69771576 C-144.41273308 131.76352224 -144.40919282 128.82947721 -144.4014473 125.89527893 C-144.39946307 124.50159121 -144.40184121 123.10788947 -144.40888596 121.71421814 C-144.4400187 113.82647921 -144.0220626 107.32657614 -141 100 C-140.34 100.33 -139.68 100.66 -139 101 C-139.16069473 101.67992004 -139.32138947 102.35984009 -139.48695374 103.06036377 C-140.07437001 106.42612291 -140.16501522 109.61688853 -140.20874023 113.03417969 C-140.21852402 113.72271027 -140.2283078 114.41124084 -140.23838806 115.12063599 C-140.26817587 117.38769645 -140.28968079 119.65469867 -140.30859375 121.921875 C-140.31516558 122.70040077 -140.3217374 123.47892654 -140.32850838 124.28104401 C-140.36102909 128.40218795 -140.38549767 132.52330684 -140.4050293 136.64453125 C-140.42283055 140.04140059 -140.45764078 143.43743795 -140.50756836 146.83398438 C-140.56799252 150.95066981 -140.59853405 155.06658523 -140.60820198 159.18369293 C-140.61671897 160.74493642 -140.63544383 162.30616139 -140.6649456 163.86714935 C-140.80961032 171.95700459 -140.87870626 178.61653184 -135.65687561 185.29229736 C-132.69921793 188.34068542 -129.61220104 190.77410314 -126 193 C-124.94232422 193.66128906 -124.94232422 193.66128906 -123.86328125 194.3359375 C-117.10962662 198.1198187 -109.96449906 199.61149287 -102.46484375 201.203125 C-99 202 -99 202 -98 203 C-95.49331985 203.24640909 -93.01347402 203.428866 -90.5 203.5625 C-89.73969482 203.6042334 -88.97938965 203.6459668 -88.19604492 203.68896484 C-71.70414581 204.52077447 -55.2209551 204.40971097 -39 201 C-39 200.34 -39 199.68 -39 199 C-38.16597656 198.69707031 -37.33195312 198.39414062 -36.47265625 198.08203125 C-20.84206532 192.44323498 -20.84206532 192.44323498 -10.96508789 179.8527832 C-9.76901614 176.31721567 -9.67511923 173.2424879 -9.5859375 169.51171875 C-9.56657135 168.80852005 -9.5472052 168.10532135 -9.5272522 167.3808136 C-9.46779817 165.14982981 -9.42120951 162.91879346 -9.375 160.6875 C-9.33678863 159.16859814 -9.29773508 157.64971722 -9.2578125 156.13085938 C-9.16212584 152.42076533 -9.07796928 148.71051349 -9 145 C-12.11646187 145.79036863 -12.11646187 145.79036863 -14.1875 148.1875 C-19.67061093 153.67061093 -26.63417646 159.34195596 -34 162 C-36.76953125 161.62890625 -36.76953125 161.62890625 -39 161 C-36.98428649 159.65619099 -34.91843019 158.38498972 -32.8125 157.1875 C-18.61411754 149.10623682 -6.44473101 139.54466845 -0.8125 123.6484375 C2.04463097 110.81882057 0.49824096 98.96755356 -6.38671875 87.73828125 C-11.78860343 79.96844712 -18.87997209 74.77682257 -27.09375 70.26171875 C-27.7228125 69.84535156 -28.351875 69.42898437 -29 69 C-29 68.34 -29 67.68 -29 67 C-28.21496094 66.63648438 -27.42992187 66.27296875 -26.62109375 65.8984375 C-14.77755054 60.2309751 -8.67954752 54.7023196 -2.94482422 42.81225586 C-1.76441885 39.29879606 -1.6918684 36.24437739 -1.62109375 32.5390625 C-1.60409927 31.83026947 -1.5871048 31.12147644 -1.56959534 30.39120483 C-1.51673477 28.13589281 -1.47633133 25.88059358 -1.4375 23.625 C-1.39329618 21.3766442 -1.34631979 19.12841638 -1.29469299 16.88021851 C-1.248544 14.83514422 -1.21082745 12.78988476 -1.17358398 10.74462891 C-1.00366018 7.07895901 -0.58108083 3.61763068 0 0 Z " fill="#442AD0" transform="translate(267,112)"/>
<path d="M0 0 C1.32064453 -0.00193359 1.32064453 -0.00193359 2.66796875 -0.00390625 C3.57933594 -0.00003906 4.49070313 0.00382812 5.4296875 0.0078125 C6.34878906 0.00394531 7.26789063 0.00007813 8.21484375 -0.00390625 C9.09269531 -0.00261719 9.97054687 -0.00132813 10.875 0 C11.67695801 0.00112793 12.47891602 0.00225586 13.30517578 0.00341797 C15.3046875 0.1328125 15.3046875 0.1328125 17.3046875 1.1328125 C18.84137615 1.35749081 20.38436804 1.54078055 21.9296875 1.6953125 C22.74695313 1.77910156 23.56421875 1.86289063 24.40625 1.94921875 C25.03273438 2.00980469 25.65921875 2.07039063 26.3046875 2.1328125 C25.33480924 4.74402321 24.39491943 7.00239916 22.8046875 9.30078125 C20.91039527 12.87724444 20.49869139 16.29316427 20.1171875 20.2578125 C20.03895752 21.01336426 19.96072754 21.76891602 19.88012695 22.54736328 C18.46741261 36.98878555 19.28856478 48.2402324 28.3046875 60.1328125 C29.1709375 61.4321875 29.1709375 61.4321875 30.0546875 62.7578125 C34.92842741 67.90231574 41.23467062 71.54943939 47.3046875 75.1328125 C46.3046875 78.1328125 46.3046875 78.1328125 43.828125 79.4921875 C42.26964844 80.18054688 42.26964844 80.18054688 40.6796875 80.8828125 C31.21496467 85.46360362 26.07489227 91.29074236 22.3046875 101.1328125 C19.7150198 108.95711099 19.85739644 116.97486129 19.6796875 125.1328125 C19.64143784 126.58986532 19.60238223 128.04689721 19.5625 129.50390625 C19.46726244 133.04668176 19.38295853 136.5896168 19.3046875 140.1328125 C15.34661035 140.25042394 11.38899129 140.32053132 7.4296875 140.3828125 C6.32109375 140.41632813 5.2125 140.44984375 4.0703125 140.484375 C-7.20356275 140.61700883 -15.67064541 137.40439621 -24.1953125 129.9453125 C-38.55854793 113.78667264 -41.87526132 93.03526748 -41.93554688 72.10864258 C-41.94517506 70.09899979 -41.97633848 68.0894975 -42.0078125 66.08007812 C-42.08316354 46.87498146 -37.9528332 25.33876901 -24.5625 10.8203125 C-17.6512705 4.27029708 -9.64369912 0.01352552 0 0 Z " fill="#732CE9" transform="translate(96.6953125,112.8671875)"/>
<path d="M0 0 C7.70381704 2.16669854 13.44516267 8.71372068 17.55859375 15.29296875 C30.87788433 40.30724618 33.73415159 74.20490568 25.77734375 101.359375 C21.79448294 113.92207912 16.14048134 125.31940798 5 133 C-2.07120694 136.62517912 -8.6817803 138.13387315 -16.61328125 138.09765625 C-17.86044922 138.09443359 -19.10761719 138.09121094 -20.39257812 138.08789062 C-21.68615234 138.07951172 -22.97972656 138.07113281 -24.3125 138.0625 C-26.28186523 138.05573242 -26.28186523 138.05573242 -28.29101562 138.04882812 C-31.5273901 138.03705949 -34.76367178 138.0206176 -38 138 C-37.97643433 139.47424438 -37.97643433 139.47424438 -37.95239258 140.97827148 C-37.89764417 144.66275676 -37.86348859 148.34720689 -37.83520508 152.03198242 C-37.82021987 153.61960926 -37.79982454 155.20719543 -37.77368164 156.79467773 C-37.58467886 168.57585115 -37.54929846 178.2812656 -46.0703125 187.2265625 C-65.15902976 204.76963464 -93.88439115 204.87950235 -118.19628906 204.18359375 C-137.4954023 203.25208328 -158.01833616 197.20328501 -171.30859375 182.63671875 C-176.58476377 174.41174239 -176.44647792 165.72264981 -176.3984375 156.21875 C-176.40046331 154.79585624 -176.40337895 153.37296349 -176.40713501 151.95007324 C-176.41153458 148.98142521 -176.40520448 146.0130497 -176.39111328 143.04443359 C-176.37402247 139.26197357 -176.38387649 135.48015242 -176.40183067 131.69771576 C-176.41273308 128.76352224 -176.40919282 125.82947721 -176.4014473 122.89527893 C-176.39946307 121.50159121 -176.40184121 120.10788947 -176.40888596 118.71421814 C-176.4400187 110.82647921 -176.0220626 104.32657614 -173 97 C-172.34 97.33 -171.68 97.66 -171 98 C-171.16069473 98.67992004 -171.32138947 99.35984009 -171.48695374 100.06036377 C-172.07437001 103.42612291 -172.16501522 106.61688853 -172.20874023 110.03417969 C-172.21852402 110.72271027 -172.2283078 111.41124084 -172.23838806 112.12063599 C-172.26817587 114.38769645 -172.28968079 116.65469867 -172.30859375 118.921875 C-172.31516558 119.70040077 -172.3217374 120.47892654 -172.32850838 121.28104401 C-172.36102909 125.40218795 -172.38549767 129.52330684 -172.4050293 133.64453125 C-172.42283055 137.04140059 -172.45764078 140.43743795 -172.50756836 143.83398438 C-172.56799252 147.95066981 -172.59853405 152.06658523 -172.60820198 156.18369293 C-172.61671897 157.74493642 -172.63544383 159.30616139 -172.6649456 160.86714935 C-172.80961032 168.95700459 -172.87870626 175.61653184 -167.65687561 182.29229736 C-164.69921793 185.34068542 -161.61220104 187.77410314 -158 190 C-156.94232422 190.66128906 -156.94232422 190.66128906 -155.86328125 191.3359375 C-149.10962662 195.1198187 -141.96449906 196.61149287 -134.46484375 198.203125 C-131 199 -131 199 -130 200 C-127.49331985 200.24640909 -125.01347402 200.428866 -122.5 200.5625 C-121.73969482 200.6042334 -120.97938965 200.6459668 -120.19604492 200.68896484 C-103.70414581 201.52077447 -87.2209551 201.40971097 -71 198 C-71 197.34 -71 196.68 -71 196 C-70.16597656 195.69707031 -69.33195312 195.39414062 -68.47265625 195.08203125 C-52.84206532 189.44323498 -52.84206532 189.44323498 -42.96508789 176.8527832 C-41.76901614 173.31721567 -41.67511923 170.2424879 -41.5859375 166.51171875 C-41.56657135 165.80852005 -41.5472052 165.10532135 -41.5272522 164.3808136 C-41.46779817 162.14982981 -41.42120951 159.91879346 -41.375 157.6875 C-41.33678863 156.16859814 -41.29773508 154.64971722 -41.2578125 153.13085938 C-41.16212584 149.42076533 -41.07796928 145.71051349 -41 142 C-44.11646187 142.79036863 -44.11646187 142.79036863 -46.1875 145.1875 C-51.67061093 150.67061093 -58.63417646 156.34195596 -66 159 C-68.76953125 158.62890625 -68.76953125 158.62890625 -71 158 C-68.98428649 156.65619099 -66.91843019 155.38498972 -64.8125 154.1875 C-49.85871038 145.67628333 -37.73178162 135.56441256 -32 118.6875 C-31.67 117.470625 -31.34 116.25375 -31 115 C-30.34 115 -29.68 115 -29 115 C-29.45045352 123.10816336 -32.5289887 129.29348305 -37 136 C-32.94630806 136.00540492 -28.89492874 135.97084739 -24.84179688 135.90234375 C-23.46884688 135.88439669 -22.09571956 135.87657582 -20.72265625 135.87988281 C-8.35313908 135.8979669 0.55522815 133.08319155 10 125 C25.88062842 104.83130618 28.17156474 77.83217037 25.69970703 52.98095703 C23.46454241 35.9851639 19.08477902 17.426293 5.44140625 5.82421875 C3.66546735 4.4972372 1.84460859 3.22973906 0 2 C0 1.34 0 0.68 0 0 Z " fill="#150B8B" transform="translate(299,115)"/>
<path d="M0 0 C0.66 0.33 1.32 0.66 2 1 C1.83930527 1.67992004 1.67861053 2.35984009 1.51304626 3.06036377 C0.92562999 6.42612291 0.83498478 9.61688853 0.79125977 13.03417969 C0.78147598 13.72271027 0.7716922 14.41124084 0.76161194 15.12063599 C0.73182413 17.38769645 0.71031921 19.65469867 0.69140625 21.921875 C0.68483442 22.70040077 0.6782626 23.47892654 0.67149162 24.28104401 C0.63897091 28.40218795 0.61450233 32.52330684 0.5949707 36.64453125 C0.57716945 40.04140059 0.54235922 43.43743795 0.49243164 46.83398438 C0.43200748 50.95066981 0.40146595 55.06658523 0.39179802 59.18369293 C0.38328103 60.74493642 0.36455617 62.30616139 0.3350544 63.86714935 C0.19038968 71.95700459 0.12129374 78.61653184 5.34312439 85.29229736 C8.30078207 88.34068542 11.38779896 90.77410314 15 93 C16.05767578 93.66128906 16.05767578 93.66128906 17.13671875 94.3359375 C23.89037338 98.1198187 31.03550094 99.61149287 38.53515625 101.203125 C42 102 42 102 43 103 C45.50668015 103.24640909 47.98652598 103.428866 50.5 103.5625 C51.64045776 103.6251001 51.64045776 103.6251001 52.80395508 103.68896484 C69.29585419 104.52077447 85.7790449 104.40971097 102 101 C102 100.34 102 99.68 102 99 C103.25103516 98.54560547 103.25103516 98.54560547 104.52734375 98.08203125 C120.15793468 92.44323498 120.15793468 92.44323498 130.03491211 79.8527832 C131.23098386 76.31721567 131.32488077 73.2424879 131.4140625 69.51171875 C131.43342865 68.80852005 131.4527948 68.10532135 131.4727478 67.3808136 C131.53220183 65.14982981 131.57879049 62.91879346 131.625 60.6875 C131.66321137 59.16859814 131.70226492 57.64971722 131.7421875 56.13085938 C131.83787416 52.42076533 131.92203072 48.71051349 132 45 C131.34 44.67 130.68 44.34 130 44 C130.99 43.67 131.98 43.34 133 43 C133.09916726 48.44428237 133.17160909 53.88803448 133.21972656 59.33300781 C133.23979339 61.18368696 133.26705345 63.03430309 133.30175781 64.88476562 C133.35049433 67.55093977 133.37301787 70.21627287 133.390625 72.8828125 C133.41127014 73.70492218 133.43191528 74.52703186 133.45318604 75.37405396 C133.45564413 81.72307797 131.546086 85.11719265 127.31640625 89.90625 C121.56243836 95.13479988 115.16131947 98.09099197 108 101 C107.26136719 101.30808594 106.52273437 101.61617188 105.76171875 101.93359375 C103.52788222 102.77074026 101.31122975 103.4062896 99 104 C97.93007812 104.2784375 96.86015625 104.556875 95.7578125 104.84375 C68.27088932 110.81676349 34.50526434 109.14372289 10.2890625 93.72265625 C3.20698304 88.39296847 -1.05732601 82.63745183 -3 74 C-3.42691978 69.07401849 -3.42341121 64.15933221 -3.3984375 59.21875 C-3.40046331 57.79585624 -3.40337895 56.37296349 -3.40713501 54.95007324 C-3.41153458 51.98142521 -3.40520448 49.0130497 -3.39111328 46.04443359 C-3.37402247 42.26197357 -3.38387649 38.48015242 -3.40183067 34.69771576 C-3.41273308 31.76352224 -3.40919282 28.82947721 -3.4014473 25.89527893 C-3.39946307 24.50159121 -3.40184121 23.10788947 -3.40888596 21.71421814 C-3.4400187 13.82647921 -3.0220626 7.32657614 0 0 Z " fill="#2115A3" transform="translate(126,212)"/>
<path d="M0 0 C4.97711539 1.52446459 9.54664764 3.56473695 14.22265625 5.81640625 C15.00458847 6.1917601 15.78652069 6.56711395 16.59214783 6.95384216 C18.24464334 7.74945997 19.89611945 8.54719814 21.54663086 9.34692383 C24.02550449 10.54462512 26.51148665 11.72656204 28.99804688 12.90820312 C43.82583503 20.03381184 58.78388439 27.32087904 65.4375 43.3125 C68.87805307 53.91592863 67.146546 63.06098946 62.66796875 72.9375 C60.94381151 76.10316574 59.05909166 78.47491386 56.625 81.125 C55.87476563 81.95257813 55.12453125 82.78015625 54.3515625 83.6328125 C46.53801372 91.49827854 37.01664133 97.3475038 26 99 C26 98.34 26 97.68 26 97 C30.04453527 93.96659855 34.15195009 93.06821439 39 92 C39 91.34 39 90.68 39 90 C40.63966108 88.95630976 42.31301016 87.96532018 44 87 C53.34368838 80.47165877 59.53757694 73.52707684 62.375 62.3125 C64.1987799 51.72705581 62.14508159 43.07833273 55.9453125 34.21484375 C51.62605418 29.29713398 45.62280989 24.11934815 39 23 C39 22.34 39 21.68 39 21 C38.33484375 20.74347656 37.6696875 20.48695313 36.984375 20.22265625 C33.35434108 18.73548267 29.8002881 17.10362074 26.25 15.4375 C25.51789307 15.09396484 24.78578613 14.75042969 24.03149414 14.39648438 C15.88056441 10.52971733 7.9342675 6.28986678 0 2 C0 1.34 0 0.68 0 0 Z " fill="#2D16A3" transform="translate(195,168)"/>
<path d="M0 0 C4.13173007 4.13173007 4.25683352 9.35806516 4.30639648 14.94824219 C4.31472 15.61580536 4.32304352 16.28336853 4.33161926 16.97116089 C4.35557809 19.16312618 4.36447469 21.35479293 4.37109375 23.546875 C4.38007226 25.08376141 4.38919431 26.62064699 4.39845276 28.15753174 C4.41490801 31.37522497 4.42263627 34.5928146 4.42553711 37.81054688 C4.43091116 41.91044051 4.46856438 46.00934434 4.51428127 50.1089592 C4.54419759 53.28338064 4.55126383 56.45756815 4.55226326 59.63211823 C4.55643832 61.1422503 4.56876221 62.65238484 4.58978081 64.1623764 C4.70527415 73.17833073 4.09099836 80.30761145 -1 88 C-1.721875 89.093125 -2.44375 90.18625 -3.1875 91.3125 C-12.52163562 100.23178515 -23.9435522 101.25268812 -36.25390625 101.0703125 C-37.16011719 101.04710937 -38.06632812 101.02390625 -39 101 C-39.08636719 100.05640625 -39.17273438 99.1128125 -39.26171875 98.140625 C-40.35926662 88.1116555 -41.61302745 77.35605439 -49.6875 70.375 C-50.78396888 69.5727057 -51.88708519 68.7793207 -53 68 C-53.66 67.34 -54.32 66.68 -55 66 C-53.515 65.505 -53.515 65.505 -52 65 C-43.78579324 69.49456596 -39.77011865 76.74955797 -37.125 85.5625 C-35.9261455 90.4841132 -35.7517414 94.95207507 -36 100 C-18.90991494 97.5776326 -18.90991494 97.5776326 -4.9375 88.0625 C-0.35830244 80.82441353 1.11484222 74.23759457 1.14526367 65.77026367 C1.15164352 64.55847946 1.15802338 63.34669525 1.16459656 62.09819031 C1.16570938 60.80121719 1.1668222 59.50424408 1.16796875 58.16796875 C1.17118721 56.80804917 1.17455171 55.44812993 1.17805481 54.08821106 C1.18402623 51.24296263 1.18589679 48.39774448 1.18530273 45.55249023 C1.18520129 41.92814508 1.19884357 38.30399663 1.21607494 34.67969799 C1.2272601 31.8716393 1.22921994 29.06362716 1.22869301 26.25554848 C1.23042833 24.27656727 1.24122764 22.2976006 1.25224304 20.31864929 C1.23513589 13.52811898 0.65324395 7.57843301 -1 1 C-0.67 0.67 -0.34 0.34 0 0 Z " fill="#351593" transform="translate(256,72)"/>
<path d="M0 0 C0.90621094 0.27714844 1.81242188 0.55429687 2.74609375 0.83984375 C3.96425781 1.20207031 5.18242187 1.56429688 6.4375 1.9375 C8.22994141 2.47697266 8.22994141 2.47697266 10.05859375 3.02734375 C17.94786685 5.13640676 26.0068766 5.18194725 34.125 5.1875 C35.55005859 5.20586914 35.55005859 5.20586914 37.00390625 5.22460938 C42.43931223 5.23591743 46.84740218 4.70859876 52 3 C54.9375 2.875 54.9375 2.875 57 3 C57 3.66 57 4.32 57 5 C48.39777732 7.93023257 40.4787348 8.42943268 31.4375 8.3125 C30.18775391 8.31572266 28.93800781 8.31894531 27.65039062 8.32226562 C20.5358542 8.28114114 13.90436397 7.75293182 7 6 C19.61574307 14.21738771 31.92826152 17.15985453 47.0625 14.1875 C48.71144956 13.80485561 50.35705322 13.40764845 52 13 C54.3747581 12.45727379 56.74976633 11.9156411 59.125 11.375 C61.08367448 10.91812674 63.04213128 10.46031396 65 10 C64.05144019 12.38368656 63.49005371 13.72104635 61.22265625 15.01171875 C47.79747519 19.21163977 27.01225551 21.38294805 14 15 C8.00597586 11.68815856 2.53769604 8.16358515 -2 3 C-1 1 -1 1 0 0 Z " fill="#301D91" transform="translate(163,263)"/>
<path d="M0 0 C4.71443576 1.44828776 9.07628773 3.3767026 13.48828125 5.5546875 C14.19091599 5.89750763 14.89355072 6.24032776 15.61747742 6.59353638 C17.85088796 7.68384864 20.08182528 8.77910286 22.3125 9.875 C25.24505809 11.31202061 28.17873597 12.74672955 31.11328125 14.1796875 C31.81307602 14.52178253 32.51287079 14.86387756 33.23387146 15.21633911 C37.51451015 17.30108256 41.81542453 19.31227021 46.19677734 21.17871094 C52.2010648 23.9134013 57.10660348 26.85153239 60 33 C60.29970769 35.76230592 60.19259337 38.20739615 60 41 C59.34 41 58.68 41 58 41 C57.95875 41.5775 57.9175 42.155 57.875 42.75 C56.50701646 46.26767195 54.26384137 47.2471963 51 49 C47.125 49.75 47.125 49.75 44 50 C43.67 49.34 43.34 48.68 43 48 C43.61488281 47.82984375 44.22976562 47.6596875 44.86328125 47.484375 C49.78302986 46.02951201 49.78302986 46.02951201 54.0625 43.3125 C55.44183891 39.91013068 55.84119482 36.55686313 55 33 C52.29404801 29.1058025 49.7893944 27.01201966 45.58203125 24.87109375 C44.50348877 24.31631348 43.42494629 23.7615332 42.3137207 23.18994141 C41.15831787 22.61163574 40.00291504 22.03333008 38.8125 21.4375 C37.61447247 20.82800849 36.41680435 20.21781006 35.21948242 19.60693359 C23.25034355 13.52659312 11.14395053 7.72171482 -1 2 C-0.67 1.34 -0.34 0.68 0 0 Z " fill="#4623AD" transform="translate(155,184)"/>
<path d="M0 0 C2.475 0.99 2.475 0.99 5 2 C4 5 4 5 1.5234375 6.359375 C0.48445313 6.81828125 -0.55453125 7.2771875 -1.625 7.75 C-11.08972283 12.33079112 -16.22979523 18.15792986 -20 28 C-22.5896677 35.82429849 -22.44729106 43.84204879 -22.625 52 C-22.66324966 53.45705282 -22.70230527 54.91408471 -22.7421875 56.37109375 C-22.83742506 59.91386926 -22.92172897 63.4568043 -23 67 C-27.08327357 67.0580772 -31.16644083 67.09362249 -35.25 67.125 C-36.40886719 67.14175781 -37.56773438 67.15851563 -38.76171875 67.17578125 C-39.87675781 67.18222656 -40.99179688 67.18867188 -42.140625 67.1953125 C-43.16704102 67.20578613 -44.19345703 67.21625977 -45.25097656 67.22705078 C-48 67 -48 67 -52 65 C-43.09 65 -34.18 65 -25 65 C-25.02320312 62.855 -25.04640625 60.71 -25.0703125 58.5 C-25.08595689 56.39828074 -25.09807428 54.29656823 -25.10986328 52.19482422 C-25.11985586 50.74590094 -25.13345453 49.29699749 -25.15087891 47.84814453 C-25.31603828 33.75130596 -23.57948014 22.52673828 -13.8125 11.640625 C-9.74013552 7.95443302 -4.61229186 4 1 4 C0.505 2.02 0.505 2.02 0 0 Z " fill="#411797" transform="translate(139,186)"/>
<path d="M0 0 C0.66 0.33 1.32 0.66 2 1 C1.83923477 1.68265427 1.67846954 2.36530853 1.51283264 3.06864929 C0.93198545 6.38877109 0.83781706 9.53058088 0.79467773 12.90161133 C0.78477814 13.57533783 0.77487854 14.24906433 0.76467896 14.94320679 C0.73325077 17.1561133 0.708381 19.36904124 0.68359375 21.58203125 C0.66300806 23.12188759 0.64201117 24.66173849 0.62062073 26.20158386 C0.56556682 30.24404475 0.51608436 34.28655522 0.46777344 38.32910156 C0.41743621 42.45837794 0.36181409 46.58758279 0.30664062 50.71679688 C0.19926324 58.81113734 0.0977734 66.90553786 0 75 C-0.99 74.67 -1.98 74.34 -3 74 C-3.06977243 65.68052126 -3.1229486 57.36116652 -3.15543652 49.04146671 C-3.1710358 45.17752242 -3.19216784 41.31377957 -3.22631836 37.44995117 C-3.25911834 33.71518942 -3.27689607 29.9806204 -3.28463173 26.24572563 C-3.29013848 24.8268881 -3.30089106 23.40806009 -3.31719017 21.9893055 C-3.40528392 13.99715722 -3.09077908 7.41858277 0 0 Z " fill="#4E20C1" transform="translate(126,212)"/>
<path d="M0 0 C0.99 0.33 1.98 0.66 3 1 C5.13661258 1.15070797 7.27712124 1.2485966 9.41796875 1.31640625 C10.67158203 1.35830078 11.92519531 1.40019531 13.21679688 1.44335938 C15.18229492 1.50233398 15.18229492 1.50233398 17.1875 1.5625 C18.52279978 1.60570992 19.85808652 1.649325 21.19335938 1.69335938 C24.46213297 1.79956502 27.73098333 1.90160997 31 2 C31 2.33 31 2.66 31 3 C21.76 3 12.52 3 3 3 C3.01160156 5.39636719 3.02320313 7.79273438 3.03515625 10.26171875 C3.04296291 12.59171415 3.04903051 14.92170807 3.05493164 17.25170898 C3.05994942 18.86662451 3.06676511 20.48153552 3.07543945 22.09643555 C3.08761714 24.42237465 3.09325395 26.7482535 3.09765625 29.07421875 C3.10281754 29.79212082 3.10797882 30.51002289 3.11329651 31.24967957 C3.11370876 34.96290232 2.88944216 38.38991122 2 42 C1.67 42 1.34 42 1 42 C1 29.79 1 17.58 1 5 C-0.65 6.65 -2.3 8.3 -4 10 C-18.5048976 21.83081033 -18.5048976 21.83081033 -25 24 C-27.75390625 23.6171875 -27.75390625 23.6171875 -30 23 C-27.98428649 21.65619099 -25.91843019 20.38498972 -23.8125 19.1875 C-10.01626135 11.63654363 -10.01626135 11.63654363 0 0 Z " fill="#04014D" transform="translate(258,250)"/>
<path d="M0 0 C4.20827473 -0.05828635 8.41644489 -0.093693 12.625 -0.125 C14.40970703 -0.15013672 14.40970703 -0.15013672 16.23046875 -0.17578125 C17.38417969 -0.18222656 18.53789062 -0.18867187 19.7265625 -0.1953125 C21.31331787 -0.21102295 21.31331787 -0.21102295 22.93212891 -0.22705078 C26.23363888 0.01729143 28.91412763 0.83117023 32 2 C31.67 2.66 31.34 3.32 31 4 C30.25492187 3.84660156 29.50984375 3.69320312 28.7421875 3.53515625 C23.54745755 2.79227733 18.36512913 2.63432751 13.125 2.4375 C12.05507813 2.39431641 10.98515625 2.35113281 9.8828125 2.30664062 C7.25532246 2.20107183 4.62774578 2.09896209 2 2 C2.02094727 3.03294189 2.04189453 4.06588379 2.06347656 5.13012695 C2.13661829 9.01214387 2.1820652 12.89410168 2.21972656 16.77661133 C2.239675 18.44761442 2.26684401 20.11854924 2.30175781 21.78930664 C2.71457367 42.07192117 2.71457367 42.07192117 -2 49 C-4.13964844 49.7746582 -4.13964844 49.7746582 -6 50 C-5.57883911 49.20758911 -5.57883911 49.20758911 -5.14916992 48.39916992 C-1.30078778 40.20214145 -1.36606898 32.16306966 -1.3125 23.3125 C-1.28322129 21.09772314 -1.24849379 18.88313814 -1.21000671 16.66850281 C-1.1776686 14.66756192 -1.15932333 12.66640906 -1.1418457 10.6652832 C-1.00069873 7.01805508 -0.58098467 3.59758008 0 0 Z " fill="#37128C" transform="translate(267,112)"/>
<path d="M0 0 C4.97711539 1.52446459 9.54664764 3.56473695 14.22265625 5.81640625 C15.00458847 6.1917601 15.78652069 6.56711395 16.59214783 6.95384216 C18.24464334 7.74945997 19.89611945 8.54719814 21.54663086 9.34692383 C24.02550449 10.54462512 26.51148665 11.72656204 28.99804688 12.90820312 C55.57870788 25.68065509 55.57870788 25.68065509 63 38 C63.33 38.99 63.66 39.98 64 41 C63.01 41.66 62.02 42.32 61 43 C60.68289062 42.3709375 60.36578125 41.741875 60.0390625 41.09375 C55.76763882 33.25887341 50.244224 26.92947864 41.6875 23.78125 C40.800625 23.5234375 39.91375 23.265625 39 23 C39 22.34 39 21.68 39 21 C38.33484375 20.74347656 37.6696875 20.48695313 36.984375 20.22265625 C33.35434108 18.73548267 29.8002881 17.10362074 26.25 15.4375 C25.51789307 15.09396484 24.78578613 14.75042969 24.03149414 14.39648438 C15.88056441 10.52971733 7.9342675 6.28986678 0 2 C0 1.34 0 0.68 0 0 Z " fill="#2B1292" transform="translate(195,168)"/>
<path d="M0 0 C0.33 0 0.66 0 1 0 C1.63149942 10.67910627 2.17291697 21.2983611 2 32 C2.68964844 31.41992188 3.37929687 30.83984375 4.08984375 30.2421875 C9.85252719 25.45180868 15.65710508 20.99367458 22 17 C23.32 17.66 24.64 18.32 26 19 C25.2265625 19.42410156 24.453125 19.84820312 23.65625 20.28515625 C9.993187 27.97908405 1.61595547 36.70953618 -5 51 C-5.33 51 -5.66 51 -6 51 C-7.02388876 44.51537118 -3.42721347 40.16122028 0 35 C-0.62648438 35.02320313 -1.25296875 35.04640625 -1.8984375 35.0703125 C-2.71570313 35.08835938 -3.53296875 35.10640625 -4.375 35.125 C-5.18710938 35.14820313 -5.99921875 35.17140625 -6.8359375 35.1953125 C-9 35 -9 35 -11 33 C-7.37 33 -3.74 33 0 33 C0 22.11 0 11.22 0 0 Z " fill="#591CA8" transform="translate(123,80)"/>
<path d="M0 0 C0 0.99 0 1.98 0 3 C-0.99 3 -1.98 3 -3 3 C-0.76972679 5.39311856 1.56002762 7.11607982 4.3125 8.875 C15.82676544 16.52017463 23.16112555 26.13252843 26 40 C26.2847447 44.35986146 26.25316712 48.63989961 26 53 C25.01 52.67 24.02 52.34 23 52 C22.98582031 51.12859375 22.97164063 50.2571875 22.95703125 49.359375 C22.38710149 35.12653445 17.72912547 24.05290461 7.25 14.375 C3.42729304 11.13755244 -0.71183792 8.67045054 -5.09375 6.26171875 C-5.7228125 5.84535156 -6.351875 5.42898437 -7 5 C-7 4.34 -7 3.68 -7 3 C-4.69 2.01 -2.38 1.02 0 0 Z " fill="#30109C" transform="translate(245,176)"/>
<path d="M0 0 C0.66 0.66 1.32 1.32 2 2 C1.81216156 4.85696211 1.51307289 7.60663686 1.125 10.4375 C-0.58490993 24.68810652 -0.53678874 38.48033172 1.5625 52.6796875 C1.93556538 55.51098728 2.08664056 58.15169159 2 61 C1.01 61.495 1.01 61.495 0 62 C-2.6106989 52.25339079 -3.21118486 43.05964256 -3.24023438 32.97583008 C-3.24986256 30.96618729 -3.28102598 28.956685 -3.3125 26.94726562 C-3.34940971 17.53990228 -2.17477537 9.1394689 0 0 Z " fill="#6B29C5" transform="translate(58,152)"/>
<path d="M0 0 C0.90621094 0.27714844 1.81242188 0.55429687 2.74609375 0.83984375 C3.96425781 1.20207031 5.18242187 1.56429688 6.4375 1.9375 C8.22994141 2.47697266 8.22994141 2.47697266 10.05859375 3.02734375 C17.94786685 5.13640676 26.0068766 5.18194725 34.125 5.1875 C35.55005859 5.20586914 35.55005859 5.20586914 37.00390625 5.22460938 C42.43931223 5.23591743 46.84740218 4.70859876 52 3 C54.9375 2.875 54.9375 2.875 57 3 C57 3.66 57 4.32 57 5 C48.32445749 7.96898341 40.30775017 8.4287704 31.1875 8.3125 C29.90423828 8.31572266 28.62097656 8.31894531 27.29882812 8.32226562 C21.38611781 8.28844357 16.58001765 8.11307745 11 6 C11 5.34 11 4.68 11 4 C8.69 4 6.38 4 4 4 C3.67 5.32 3.34 6.64 3 8 C1.35 6.35 -0.3 4.7 -2 3 C-1 1 -1 1 0 0 Z " fill="#341CA0" transform="translate(163,263)"/>
<path d="M0 0 C0.66 0 1.32 0 2 0 C2.268125 0.64066406 2.53625 1.28132813 2.8125 1.94140625 C7.82817356 13.01218572 15.76185807 18.66313315 27 23 C31.94663998 24.45346575 36.97727623 25.50858372 42.02197266 26.55664062 C45.0571067 27.23694221 48.01967126 28.11174516 51 29 C51 29.66 51 30.32 51 31 C34.58530022 30.21834763 16.658349 24.62204713 5.25 12.3125 C2.05277048 8.51057707 0 5.05211873 0 0 Z " fill="#240B87" transform="translate(124,287)"/>
<path d="M0 0 C0.75862335 -0.00167175 1.5172467 -0.00334351 2.29885864 -0.00506592 C29.67446421 -0.00869053 29.67446421 -0.00869053 37.5625 5.25 C36.14594207 5.2772415 34.72922955 5.29650467 33.3125 5.3125 C32.12914062 5.32990234 32.12914062 5.32990234 30.921875 5.34765625 C28.5625 5.25 28.5625 5.25 26.78857422 4.77880859 C15.14216643 2.01218003 2.08397988 3.1295484 -9.8125 3.1875 C-11.62760292 3.19252933 -13.4427072 3.19708968 -15.2578125 3.20117188 C-19.65107608 3.21205402 -24.04427246 3.22923806 -28.4375 3.25 C-20.58948104 -1.65501185 -8.92272438 0.01031487 0 0 Z " fill="#541EA4" transform="translate(191.4375,49.75)"/>
<path d="M0 0 C7.70247832 2.16632203 13.43046945 8.7078926 17.5546875 15.27734375 C23.3494579 26.19343827 27.51874922 37.55001869 27 50 C26.34 49.67 25.68 49.34 25 49 C24.31368209 46.22775517 23.7280612 43.48835998 23.1875 40.6875 C19.85261956 24.80614862 13.90806729 11.27204486 0 2 C0 1.34 0 0.68 0 0 Z " fill="#2B1291" transform="translate(299,115)"/>
<path d="M0 0 C-0.86625 0.61875 -0.86625 0.61875 -1.75 1.25 C-6.14333999 4.63225621 -6.14333999 4.63225621 -8.9375 9.3125 C-9.02800981 13.204422 -8.34113994 15.93297588 -6 19 C0.00975338 23.79373305 6.88389187 27.17112739 14 30 C13.67 30.66 13.34 31.32 13 32 C5.00278391 30.94176725 -4.28328137 25.2883126 -9.875 19.5625 C-12.2867881 16.27437896 -12.86456658 13.2607074 -12.6015625 9.21875 C-11.53562573 5.28724294 -9.02378006 2.63209871 -6 0 C-3.50907189 -1.24546405 -2.58919267 -0.7767578 0 0 Z " fill="#4F19BF" transform="translate(181,137)"/>
<path d="M0 0 C2.33294775 -0.04241723 4.66702567 -0.04092937 7 0 C8.84067605 1.84067605 8.21930401 4.96381213 8.3125 7.4375 C8.72726849 14.00020794 10.09175948 19.13962099 13 25 C13.33773437 25.72960937 13.67546875 26.45921875 14.0234375 27.2109375 C15.32684222 29.59877495 16.50896372 29.92279512 19 31 C20.1726743 31.65604157 21.33888134 32.32371676 22.5 33 C24.96315815 34.41962663 27.43552853 35.76905369 30 37 C24.06758931 37.7737927 20.3633179 36.19421249 15.37109375 32.96484375 C8.78647983 27.50840091 6.32234351 20.19852973 5 12 C5.66 12 6.32 12 7 12 C7 8.7 7 5.4 7 2 C4.69 1.67 2.38 1.34 0 1 C0 0.67 0 0.34 0 0 Z " fill="#361696" transform="translate(159,196)"/>
<path d="M0 0 C4.76567054 1.46082673 9.17029381 3.42347552 13.62890625 5.625 C14.34102768 5.97256348 15.05314911 6.32012695 15.78684998 6.67822266 C18.04713918 7.78196777 20.30496014 8.89064381 22.5625 10 C24.8239371 11.10866574 27.08589981 12.21622713 29.34886169 13.32177734 C30.75222073 14.00763302 32.15466525 14.69536413 33.55604553 15.38525391 C36.99039744 17.06628858 40.42588853 18.63925187 44 20 C43.505 21.485 43.505 21.485 43 23 C28.30291939 16.06311809 13.64598237 9.0440628 -1 2 C-0.67 1.34 -0.34 0.68 0 0 Z " fill="#3E1497" transform="translate(155,184)"/>
<path d="M0 0 C6.63370725 2.08487942 10.39969222 6.91147376 13.86328125 12.69140625 C17.02491108 19.11244828 18.47480348 25.87794774 18 33 C16.515 33.495 16.515 33.495 15 34 C14.91363281 33.20078125 14.82726562 32.4015625 14.73828125 31.578125 C13.52764294 22.11515395 11.89380382 11.89808016 4.3125 5.375 C3.21603112 4.5727057 2.11291481 3.7793207 1 3 C0.34 2.34 -0.32 1.68 -1 1 C-0.67 0.67 -0.34 0.34 0 0 Z " fill="#4112A6" transform="translate(202,137)"/>
<path d="M0 0 C0.66 0 1.32 0 2 0 C1.54954648 8.10816336 -1.5289887 14.29348305 -6 21 C3.24 21 12.48 21 22 21 C22 21.33 22 21.66 22 22 C17.90658501 22.02469575 13.81319879 22.04285793 9.71972656 22.05493164 C8.32681523 22.0599643 6.9339092 22.06679098 5.54101562 22.07543945 C3.54038754 22.08755152 1.53972112 22.09270412 -0.4609375 22.09765625 C-1.66540527 22.10289307 -2.86987305 22.10812988 -4.11083984 22.11352539 C-7 22 -7 22 -9 21 C-7.68037931 17.57265183 -6.18914467 14.32234322 -4.5 11.0625 C-2.66471904 7.44066236 -1.13269635 3.91295102 0 0 Z " fill="#250F9B" transform="translate(268,230)"/>
<path d="M0 0 C1.65 0.66 3.3 1.32 5 2 C4 5 4 5 1.5234375 6.359375 C0.48445313 6.81828125 -0.55453125 7.2771875 -1.625 7.75 C-10.05740032 11.80596453 -14.78322111 16.73511338 -19 25 C-19.99 24.67 -20.98 24.34 -22 24 C-16.58288497 14.917688 -11.74586946 8.65819523 -2 4 C-1.01 4 -0.02 4 1 4 C0.67 2.68 0.34 1.36 0 0 Z " fill="#4C19B5" transform="translate(139,186)"/>
<path d="M0 0 C0.33 0.99 0.66 1.98 1 3 C0.28714844 3.4846875 -0.42570312 3.969375 -1.16015625 4.46875 C-10.24424423 10.82638896 -16.4628255 16.83672911 -21 27 C-21.99 27 -22.98 27 -24 27 C-20.44443512 14.97796627 -12.09771578 7.68002736 -2 1 C-1.34 0.67 -0.68 0.34 0 0 Z " fill="#490DAC" transform="translate(148,107)"/>
<path d="M0 0 C1.32 0.66 2.64 1.32 4 2 C3.2265625 2.42410156 2.453125 2.84820312 1.65625 3.28515625 C-6.64574475 7.96016567 -13.41370056 13.13927142 -20 20 C-21 19 -21 19 -21.09765625 15.18359375 C-21.09098089 13.60153318 -21.07901875 12.01948841 -21.0625 10.4375 C-21.05798828 9.63119141 -21.05347656 8.82488281 -21.04882812 7.99414062 C-21.03700518 5.99606244 -21.01906914 3.99802217 -21 2 C-20.67 2 -20.34 2 -20 2 C-20 6.29 -20 10.58 -20 15 C-18.370625 13.63875 -16.74125 12.2775 -15.0625 10.875 C-10.2307598 6.91322338 -5.28504818 3.32762293 0 0 Z " fill="#5A10B8" transform="translate(145,97)"/>
<path d="M0 0 C0.66 0.33 1.32 0.66 2 1 C1.68406136 1.93638054 1.68406136 1.93638054 1.36174011 2.89167786 C-1.09537797 10.86787923 -1.47086529 18.32910892 -1.51171875 26.63671875 C-1.52860692 28.0110683 -1.54676256 29.3854028 -1.56611633 30.75971985 C-1.61317451 34.33848358 -1.64326702 37.91718629 -1.66955566 41.49615479 C-1.69958718 45.16357476 -1.74603842 48.83078514 -1.79101562 52.49804688 C-1.87654437 59.66525954 -1.94411063 66.83248832 -2 74 C-2.33 74 -2.66 74 -3 74 C-3.06977243 65.68052126 -3.1229486 57.36116652 -3.15543652 49.04146671 C-3.1710358 45.17752242 -3.19216784 41.31377957 -3.22631836 37.44995117 C-3.25911834 33.71518942 -3.27689607 29.9806204 -3.28463173 26.24572563 C-3.29013848 24.8268881 -3.30089106 23.40806009 -3.31719017 21.9893055 C-3.40528392 13.99715722 -3.09077908 7.41858277 0 0 Z " fill="#3F1595" transform="translate(126,212)"/>
<path d="M0 0 C11.88 0 23.76 0 36 0 C33 3 33 3 29.84545898 3.35644531 C28.57516846 3.34709961 27.30487793 3.33775391 25.99609375 3.328125 C25.31700455 3.32625183 24.63791534 3.32437866 23.93824768 3.32244873 C22.50508705 3.31573521 21.07194454 3.30183441 19.63891602 3.28125 C17.44204737 3.25006455 15.2458963 3.24027515 13.04882812 3.234375 C2.32756618 3.16378309 2.32756618 3.16378309 0 2 C0 1.34 0 0.68 0 0 Z " fill="#291A98" transform="translate(175,316)"/>
<path d="M0 0 C0.99 0.33 1.98 0.66 3 1 C-2.62434367 7.18677804 -10.13316703 13.07280634 -18 16 C-20.875 15.6875 -20.875 15.6875 -23 15 C-18.97537928 12.31691952 -14.79725845 9.89780769 -10.625 7.453125 C-7.60085712 5.65791668 -4.9118431 3.92567163 -2.2109375 1.6484375 C-1.48132813 1.10445313 -0.75171875 0.56046875 0 0 Z " fill="#251489" transform="translate(251,258)"/>
<path d="M0 0 C3.03503201 4.55254802 2.54824999 9.19660044 2.75 14.5625 C2.80542969 15.62919922 2.86085938 16.69589844 2.91796875 17.79492188 C2.96050781 18.81263672 3.00304687 19.83035156 3.046875 20.87890625 C3.08651367 21.8129126 3.12615234 22.74691895 3.16699219 23.70922852 C3 26 3 26 1 28 C-2.76109178 20.00767997 -3.4206434 11.25553274 -1 2.6875 C-0.67 1.800625 -0.34 0.91375 0 0 Z " fill="#581CB4" transform="translate(123,134)"/>
<path d="M0 0 C3.83287929 3.83287929 4.1295704 8.15079102 4.13525391 13.36279297 C4.09322047 15.48950029 4.03967862 17.61600143 3.9765625 19.7421875 C3.95153656 20.86569611 3.92651062 21.98920471 3.90072632 23.14675903 C3.81877942 26.72315782 3.72209077 30.29898345 3.625 33.875 C3.56673467 36.30466435 3.50943195 38.73435198 3.453125 41.1640625 C3.31323824 47.1096901 3.16125734 53.05491569 3 59 C2.67 59 2.34 59 2 59 C1.99191315 58.40610977 1.98382629 57.81221954 1.97549438 57.20033264 C1.88904677 50.98645599 1.78952841 44.7728837 1.68261719 38.55932617 C1.64447209 36.24427424 1.60959468 33.92916597 1.578125 31.61401367 C1.53215913 28.27502381 1.47421753 24.93641706 1.4140625 21.59765625 C1.39673569 20.05961082 1.39673569 20.05961082 1.37905884 18.49049377 C1.25505622 12.37241333 0.41278552 6.94739573 -1 1 C-0.67 0.67 -0.34 0.34 0 0 Z " fill="#4516B5" transform="translate(256,72)"/>
<path d="M0 0 C0.33 0.99 0.66 1.98 1 3 C-1.59160597 5.66782967 -4.01403623 8.01052718 -7 10.25 C-10.86964919 13.36777435 -12.83847911 17.61000845 -15 22 C-15.66 20.68 -16.32 19.36 -17 18 C-12.13152514 10.66412372 -7.31184984 4.95919445 0 0 Z " fill="#6119B8" transform="translate(81,117)"/>
<path d="M0 0 C-3.46419301 2.93026234 -6.8821572 5.15721898 -10.9375 7.1875 C-12.43603516 7.95126953 -12.43603516 7.95126953 -13.96484375 8.73046875 C-17.01291201 10.00540078 -19.73165771 10.59571921 -23 11 C-23 10.34 -23 9.68 -23 9 C-18.95546473 5.96659855 -14.84804991 5.06821439 -10 4 C-10 3.34 -10 2.68 -10 2 C-3.375 -1.125 -3.375 -1.125 0 0 Z " fill="#2A1898" transform="translate(244,256)"/>
<path d="M0 0 C0.99 0 1.98 0 3 0 C3.64910154 1.58199631 4.29414694 3.16565724 4.9375 4.75 C5.29714844 5.63171875 5.65679687 6.5134375 6.02734375 7.421875 C7.77314525 12.04930066 8.11228275 15.77172492 8.0625 20.75 C8.05347656 21.92046875 8.04445313 23.0909375 8.03515625 24.296875 C8.02355469 25.18890625 8.01195312 26.0809375 8 27 C7.01 26.67 6.02 26.34 5 26 C4.97421875 25.10539062 4.9484375 24.21078125 4.921875 23.2890625 C4.58905378 16.19391928 3.84748119 10.35544 0.83984375 3.890625 C0 2 0 2 0 0 Z " fill="#230F8C" transform="translate(263,202)"/>
<path d="M0 0 C0.99 0 1.98 0 3 0 C4.32421875 1.5390625 4.32421875 1.5390625 5.6875 3.625 C9.71450488 9.28891708 14.75272497 13.02907365 21 16 C21 16.66 21 17.32 21 18 C11.81874643 15.3767847 5.55338941 9.61020031 0 2 C0 1.34 0 0.68 0 0 Z " fill="#4D1DA2" transform="translate(66,233)"/>
<path d="M0 0 C0.90621094 0.27714844 1.81242188 0.55429687 2.74609375 0.83984375 C9.50465724 2.849533 15.93559646 4.51279976 23 5 C23 5.33 23 5.66 23 6 C19.37 6.33 15.74 6.66 12 7 C11.67 6.01 11.34 5.02 11 4 C8.69 4 6.38 4 4 4 C3.67 5.32 3.34 6.64 3 8 C1.35 6.35 -0.3 4.7 -2 3 C-1 1 -1 1 0 0 Z " fill="#4224B3" transform="translate(163,263)"/>
<path d="M0 0 C6.38520354 0.15963009 9.66008365 3.78124883 14 8 C13.34 8.66 12.68 9.32 12 10 C9.72265625 9.79296875 9.72265625 9.79296875 7.0625 9.1875 C5.74958984 8.89939453 5.74958984 8.89939453 4.41015625 8.60546875 C2 8 2 8 -1 7 C-1 6.34 -1 5.68 -1 5 C1.64 5.33 4.28 5.66 7 6 C6.4946875 5.65066406 5.989375 5.30132812 5.46875 4.94140625 C4.49421875 4.25884766 4.49421875 4.25884766 3.5 3.5625 C2.8503125 3.11003906 2.200625 2.65757813 1.53125 2.19140625 C1.0259375 1.79824219 0.520625 1.40507813 0 1 C0 0.67 0 0.34 0 0 Z " fill="#44149E" transform="translate(208,93)"/>
<path d="M0 0 C0.33 0.99 0.66 1.98 1 3 C-0.93786085 2.52229477 -2.87527674 2.04278429 -4.8125 1.5625 C-5.89144531 1.29566406 -6.97039062 1.02882813 -8.08203125 0.75390625 C-10.0740843 0.23922588 -12.04811524 -0.34937175 -14 -1 C-15.33525717 -1.07973476 -16.67412083 -1.10771338 -18.01171875 -1.09765625 C-18.76904297 -1.09443359 -19.52636719 -1.09121094 -20.30664062 -1.08789062 C-21.48516602 -1.07532227 -21.48516602 -1.07532227 -22.6875 -1.0625 C-23.48478516 -1.05798828 -24.28207031 -1.05347656 -25.10351562 -1.04882812 C-27.06904257 -1.0370585 -29.03453085 -1.01912348 -31 -1 C-31 -1.66 -31 -2.32 -31 -3 C-20.60500308 -4.28455285 -9.72560229 -4.59755744 0 0 Z " fill="#5723B3" transform="translate(207,90)"/>
<path d="M0 0 C0.33 0 0.66 0 1 0 C2.00025163 7.89150047 2.12008681 15.67802068 2.0625 23.625 C2.05798828 24.81996094 2.05347656 26.01492187 2.04882812 27.24609375 C2.03715603 30.16411647 2.02078326 33.08203037 2 36 C1.67 36 1.34 36 1 36 C0.62972501 32.06384546 0.28181363 28.1260036 -0.0625 24.1875 C-0.16626953 23.08728516 -0.27003906 21.98707031 -0.37695312 20.85351562 C-0.98413258 13.75579715 -0.91563991 7.06667969 0 0 Z " fill="#1C0A7C" transform="translate(326,160)"/>
<path d="M0 0 C2.55698285 3.78667689 2.03499684 7.4122334 1.625 11.75 C1.56828125 12.44738281 1.5115625 13.14476562 1.453125 13.86328125 C1.31232128 15.57639312 1.15754028 17.28834611 1 19 C0.01 19.33 -0.98 19.66 -2 20 C-2.3690205 6.3667426 -2.3690205 6.3667426 0 0 Z " fill="#6D2DAF" transform="translate(114,132)"/>
<path d="M0 0 C1.98 0 3.96 0 6 0 C6 0.66 6 1.32 6 2 C4.68 2 3.36 2 2 2 C2.62648437 2.38671875 3.25296875 2.7734375 3.8984375 3.171875 C4.71570313 3.69265625 5.53296875 4.2134375 6.375 4.75 C7.18710938 5.26046875 7.99921875 5.7709375 8.8359375 6.296875 C11.08555679 8.0673335 11.95906848 9.36907419 13 12 C7.32146365 10.58036591 3.46825784 7.60636039 -1 4 C-0.67 2.68 -0.34 1.36 0 0 Z " fill="#3B209F" transform="translate(168,267)"/>
<path d="M0 0 C0.99 0 1.98 0 3 0 C4.54296875 1.7578125 4.54296875 1.7578125 6.1875 4.125 C9.5776684 8.71042008 13.26794173 11.86577959 18 15 C17.34 15.66 16.68 16.32 16 17 C2.33692458 7.01077375 2.33692458 7.01077375 0 0 Z " fill="#4D13A5" transform="translate(125,162)"/>
<path d="M0 0 C5 5 5 5 7.375 7.5 C9.4768955 9.50180524 11.45235481 11.09742349 13.8125 12.75 C14.864375 13.4925 15.91625 14.235 17 15 C17 15.33 17 15.66 17 16 C13.22283124 16.58164194 12.05941786 16.04256913 8.88671875 13.76953125 C7.80832088 12.79698838 6.74214034 11.81075616 5.6875 10.8125 C5.13771484 10.32974609 4.58792969 9.84699219 4.02148438 9.34960938 C1.4829971 7.00032612 0.07852847 5.63254249 -0.35546875 2.13671875 C-0.23816406 1.43160156 -0.12085937 0.72648438 0 0 Z " fill="#4E1BA8" transform="translate(122,170)"/>
<path d="M0 0 C-0.86625 0.61875 -0.86625 0.61875 -1.75 1.25 C-2.4925 1.8275 -3.235 2.405 -4 3 C-4.721875 3.53625 -5.44375 4.0725 -6.1875 4.625 C-8.86141415 8.12874957 -8.81589587 11.69196338 -9 16 C-9.99 15.67 -10.98 15.34 -12 15 C-12.71920089 8.16759156 -12.71920089 8.16759156 -10.734375 4.9453125 C-5.17916116 -1.55374835 -5.17916116 -1.55374835 0 0 Z " fill="#4A14A4" transform="translate(181,137)"/>
<path d="M0 0 C14.78132118 3.07517084 14.78132118 3.07517084 21 5 C21 5.66 21 6.32 21 7 C13.69303751 6.54034292 7.00242552 5.11670277 0 3 C0 2.01 0 1.02 0 0 Z " fill="#291689" transform="translate(154,311)"/>
<path d="M0 0 C0.99 0 1.98 0 3 0 C3.18175781 0.72445312 3.36351563 1.44890625 3.55078125 2.1953125 C4.92167755 7.46799057 6.30679941 12.25483705 9 17 C8.01 17.33 7.02 17.66 6 18 C2.63438409 11.9394075 0.38669459 6.96050253 0 0 Z " fill="#511DA8" transform="translate(113,153)"/>
<path d="M0 0 C5.00113594 1.48008696 9.32915597 3.6318336 13.875 6.125 C14.56335938 6.49753906 15.25171875 6.87007812 15.9609375 7.25390625 C17.64294798 8.16499526 19.32180436 9.08190315 21 10 C21 10.66 21 11.32 21 12 C16.3970402 10.27502493 12.06744176 8.0904129 7.6875 5.875 C6.94693359 5.50246094 6.20636719 5.12992188 5.44335938 4.74609375 C3.62798783 3.83255194 1.81386718 2.91652513 0 2 C0 1.34 0 0.68 0 0 Z " fill="#310E9D" transform="translate(195,168)"/>
<path d="M0 0 C0.99 0.99 1.98 1.98 3 3 C2.11859706 6.87817296 1.36645569 8.68467767 -1.6875 11.3125 C-5.22505552 13.11465092 -8.06374409 13.68509953 -12 14 C-12.33 13.34 -12.66 12.68 -13 12 C-12.07767578 11.74476563 -12.07767578 11.74476563 -11.13671875 11.484375 C-6.16195448 10.05160926 -6.16195448 10.05160926 -2 7.125 C-0.8849088 4.7554312 -0.35957015 2.58890511 0 0 Z " fill="#34179D" transform="translate(211,220)"/>
<path d="M0 0 C0.33 0.99 0.66 1.98 1 3 C0.54109375 3.31710938 0.0821875 3.63421875 -0.390625 3.9609375 C-5.8744231 8.13138899 -7.93508123 12.51025528 -10 19 C-12 16 -12 16 -11.5625 13.3125 C-8.96378775 7.80323003 -5.0640924 3.3760616 0 0 Z " fill="#5A11C1" transform="translate(136,62)"/>
<path d="M0 0 C2 2 2 2 2.5 5.0625 C1.83060683 10.33397124 -0.51738042 14.02115224 -4 18 C-4.66 18 -5.32 18 -6 18 C-4.87725238 15.14994834 -3.70566698 12.35246735 -2.4375 9.5625 C-1.12084329 6.2994812 -0.42391604 3.47611149 0 0 Z " fill="#3D11B3" transform="translate(257,144)"/>
<path d="M0 0 C5.91969002 1.75990784 11.41634992 4.39694605 17 7 C16.67 7.99 16.34 8.98 16 10 C10.39 7.36 4.78 4.72 -1 2 C-0.67 1.34 -0.34 0.68 0 0 Z " fill="#36168C" transform="translate(182,197)"/>
<path d="M0 0 C-0.33 0.66 -0.66 1.32 -1 2 C-3.94921875 2.59765625 -3.94921875 2.59765625 -7.6875 3.0625 C-12.14304552 3.63179357 -16.57394005 4.23172846 -21 5 C-21 4.34 -21 3.68 -21 3 C-13.92444501 -0.0017506 -7.62951555 -0.34855655 0 0 Z " fill="#50189E" transform="translate(104,113)"/>
<path d="M0 0 C-3.3247612 2.21650746 -6.50539601 3.12605143 -10.3125 4.125 C-11.28993164 4.39763672 -11.28993164 4.39763672 -12.28710938 4.67578125 C-16.28383711 5.73997502 -19.87067786 6.19206149 -24 6 C-23.67 5.34 -23.34 4.68 -23 4 C-20.72958206 3.39320032 -18.43153231 2.88795774 -16.125 2.4375 C-3.43824412 -0.07640542 -3.43824412 -0.07640542 0 0 Z " fill="#150C72" transform="translate(234,312)"/>
<path d="M0 0 C1.98 0.495 1.98 0.495 4 1 C3.01 2.485 3.01 2.485 2 4 C11.24 4 20.48 4 30 4 C30 4.33 30 4.66 30 5 C25.90658501 5.02469575 21.81319879 5.04285793 17.71972656 5.05493164 C16.32681523 5.0599643 14.9339092 5.06679098 13.54101562 5.07543945 C11.54038754 5.08755152 9.53972112 5.09270412 7.5390625 5.09765625 C6.33459473 5.10289307 5.13012695 5.10812988 3.88916016 5.11352539 C1 5 1 5 -1 4 C-0.67 2.68 -0.34 1.36 0 0 Z " fill="#27199D" transform="translate(260,247)"/>
<path d="M0 0 C0 0.99 0 1.98 0 3 C-0.99 3 -1.98 3 -3 3 C-0.63379989 5.61527381 1.942048 7.26440562 5 9 C4.67 9.99 4.34 10.98 4 12 C2.16136495 10.88368586 0.32920277 9.75670373 -1.5 8.625 C-2.5209375 7.99851563 -3.541875 7.37203125 -4.59375 6.7265625 C-5.3878125 6.15679687 -6.181875 5.58703125 -7 5 C-7 4.34 -7 3.68 -7 3 C-4.69 2.01 -2.38 1.02 0 0 Z " fill="#28098F" transform="translate(245,176)"/>
<path d="M0 0 C-0.98884704 2.56781248 -1.55586589 3.76249971 -4.0234375 5.08203125 C-4.79945313 5.32308594 -5.57546875 5.56414062 -6.375 5.8125 C-7.14585937 6.06644531 -7.91671875 6.32039063 -8.7109375 6.58203125 C-11.17344686 7.03167033 -12.64915604 6.78898188 -15 6 C-12.59762538 2.39643808 -11.57886001 2.32684808 -7.5 1.3125 C-6.03046875 0.93544922 -6.03046875 0.93544922 -4.53125 0.55078125 C-2 0 -2 0 0 0 Z " fill="#3625A9" transform="translate(228,273)"/>
<path d="M0 0 C0.99 0.33 1.98 0.66 3 1 C2.50628906 1.68707031 2.01257813 2.37414062 1.50390625 3.08203125 C0.86324219 3.98308594 0.22257813 4.88414063 -0.4375 5.8125 C-1.07558594 6.70582031 -1.71367187 7.59914063 -2.37109375 8.51953125 C-4.13290268 10.97134334 -4.13290268 10.97134334 -5 14 C-5.99 14 -6.98 14 -8 14 C-6.58036591 8.32146365 -3.60636039 4.46825784 0 0 Z " fill="#5B14B3" transform="translate(132,120)"/>
<path d="M0 0 C0 0.33 0 0.66 0 1 C-1.00160156 1.26554687 -2.00320312 1.53109375 -3.03515625 1.8046875 C-4.37761321 2.16142431 -5.72006061 2.51819707 -7.0625 2.875 C-7.71927734 3.04902344 -8.37605469 3.22304687 -9.05273438 3.40234375 C-13.38292014 4.55421582 -17.69500861 5.75720665 -22 7 C-21.67 6.01 -21.34 5.02 -21 4 C-14.22337258 1.02465257 -7.37445212 -0.5783884 0 0 Z " fill="#4A1695" transform="translate(175,89)"/>
<path d="M0 0 C0.33 0.66 0.66 1.32 1 2 C-1.44770504 7.28704288 -3.6638969 10.27749842 -9 13 C-11.875 13.25 -11.875 13.25 -14 13 C-12.948125 12.1646875 -12.948125 12.1646875 -11.875 11.3125 C-10.92625 10.549375 -9.9775 9.78625 -9 9 C-8.484375 8.59136719 -7.96875 8.18273437 -7.4375 7.76171875 C-4.51882777 5.40489092 -2.08470655 3.12705983 0 0 Z " fill="#2A0E8F" transform="translate(260,163)"/>
<path d="M0 0 C0 0.66 0 1.32 0 2 C-5.61854082 3.95088223 -11.21113776 5.63172347 -17 7 C-17 6.01 -17 5.02 -17 4 C-14.91891315 3.32635339 -12.8350329 2.66133202 -10.75 2 C-9.58984375 1.62875 -8.4296875 1.2575 -7.234375 0.875 C-4 0 -4 0 0 0 Z " fill="#52179E" transform="translate(162,53)"/>
<path d="M0 0 C0.66 0 1.32 0 2 0 C2.47179687 0.99580078 2.47179687 0.99580078 2.953125 2.01171875 C5.25301049 6.75696442 7.44142868 11.04603186 11 15 C7.34341421 14.45270191 5.9907095 13.25224291 3.8125 10.3125 C1.38516761 6.919126 0.21238245 4.24764903 0 0 Z " fill="#290B93" transform="translate(124,287)"/>
<path d="M0 0 C0.33 0 0.66 0 1 0 C1.05787784 3.62493334 1.0935542 7.24974857 1.125 10.875 C1.15013672 12.42380859 1.15013672 12.42380859 1.17578125 14.00390625 C1.18222656 14.99003906 1.18867188 15.97617188 1.1953125 16.9921875 C1.20578613 17.90339355 1.21625977 18.81459961 1.22705078 19.75341797 C1 22 1 22 -1 24 C-2.48243307 18.9929009 -1.67323012 14.27438873 -1.0625 9.1875 C-0.96259766 8.30384766 -0.86269531 7.42019531 -0.75976562 6.50976562 C-0.51335006 4.33896187 -0.25989965 2.16922363 0 0 Z " fill="#1B0C94" transform="translate(326,184)"/>
<path d="M0 0 C0.66 0.66 1.32 1.32 2 2 C1.9765625 4.3828125 1.9765625 4.3828125 1.625 7.125 C1.51414062 8.03507813 1.40328125 8.94515625 1.2890625 9.8828125 C1.19367187 10.58148438 1.09828125 11.28015625 1 12 C0.34 12 -0.32 12 -1 12 C-1.33 14.31 -1.66 16.62 -2 19 C-3.56454159 14.97985339 -2.46223974 11.30074319 -1.5625 7.25 C-1.34110352 6.20392578 -1.34110352 6.20392578 -1.11523438 5.13671875 C-0.75131967 3.4227979 -0.37670932 1.71115419 0 0 Z " fill="#5A1BAC" transform="translate(58,152)"/>
<path d="M0 0 C0.66 0 1.32 0 2 0 C1.50269348 4.97306516 0.44697666 8.63799813 -2 13 C-2.99 12.67 -3.98 12.34 -5 12 C-3.35 8.04 -1.7 4.08 0 0 Z " fill="#301198" transform="translate(266,149)"/>
<path d="M0 0 C1.485 0.99 1.485 0.99 3 2 C3.51171875 4.6015625 3.51171875 4.6015625 3.6875 7.625 C3.75324219 8.62789062 3.81898437 9.63078125 3.88671875 10.6640625 C3.92410156 11.43492187 3.96148437 12.20578125 4 13 C3.01 13.495 3.01 13.495 2 14 C0.66416101 9.15758367 -0.25328119 5.06562383 0 0 Z " fill="#5D20B6" transform="translate(56,200)"/>
<path d="M0 0 C0.66 0.99 1.32 1.98 2 3 C1.21258141 4.46063143 0.4199095 5.91843173 -0.375 7.375 C-0.81585938 8.18710938 -1.25671875 8.99921875 -1.7109375 9.8359375 C-3 12 -3 12 -5 14 C-5.74737188 8.02102497 -3.3231898 4.67620279 0 0 Z " fill="#5214A6" transform="translate(122,117)"/>
<path d="M0 0 C2.475 0.99 2.475 0.99 5 2 C4 5 4 5 2.15234375 5.94921875 C1.42144531 6.19285156 0.69054687 6.43648437 -0.0625 6.6875 C-1.16271484 7.06455078 -1.16271484 7.06455078 -2.28515625 7.44921875 C-2.85105469 7.63097656 -3.41695312 7.81273437 -4 8 C-4 7.01 -4 6.02 -4 5 C-2.35 4.67 -0.7 4.34 1 4 C0.67 2.68 0.34 1.36 0 0 Z " fill="#38108D" transform="translate(139,186)"/>
<path d="M0 0 C1.58628608 0.59637091 3.16892059 1.20245925 4.75 1.8125 C5.63171875 2.14894531 6.5134375 2.48539063 7.421875 2.83203125 C9.93039808 3.96846822 11.87279005 5.26542927 14 7 C9.0569398 6.50569398 5.25023806 5.63109975 1 3 C0.67 2.01 0.34 1.02 0 0 Z " fill="#2C0C83" transform="translate(216,178)"/>
<path d="M0 0 C-3.77312992 3.94463583 -3.77312992 3.94463583 -7.1640625 4.09765625 C-8.38222656 4.08025391 -8.38222656 4.08025391 -9.625 4.0625 C-10.85089844 4.04896484 -10.85089844 4.04896484 -12.1015625 4.03515625 C-13.04128906 4.01775391 -13.04128906 4.01775391 -14 4 C-3.64098074 -1.21366025 -3.64098074 -1.21366025 0 0 Z " fill="#2418A0" transform="translate(242,308)"/>
<path d="M0 0 C0.99 0.66 1.98 1.32 3 2 C0.36 3.98 -2.28 5.96 -5 8 C-5.66 7.67 -6.32 7.34 -7 7 C-7 6.34 -7 5.68 -7 5 C-5.46875 3.7109375 -5.46875 3.7109375 -3.5 2.375 C-2.8503125 1.92898437 -2.200625 1.48296875 -1.53125 1.0234375 C-1.0259375 0.68570313 -0.520625 0.34796875 0 0 Z " fill="#300F8F" transform="translate(250,161)"/>
<path d="M0 0 C0.33 0 0.66 0 1 0 C1.33 4.62 1.66 9.24 2 14 C1.01 14 0.02 14 -1 14 C-1.02685938 11.85423363 -1.04633088 9.70837355 -1.0625 7.5625 C-1.07410156 6.36753906 -1.08570312 5.17257813 -1.09765625 3.94140625 C-1 1 -1 1 0 0 Z " fill="#651BA9" transform="translate(122,140)"/>
<path d="M0 0 C1 4 1 4 0.00390625 6.359375 C-0.47175781 7.14828125 -0.94742188 7.9371875 -1.4375 8.75 C-1.91058594 9.54921875 -2.38367188 10.3484375 -2.87109375 11.171875 C-3.24363281 11.77515625 -3.61617188 12.3784375 -4 13 C-4.66 11.68 -5.32 10.36 -6 9 C-4.02 6.03 -2.04 3.06 0 0 Z " fill="#5C1DAF" transform="translate(70,126)"/>
<path d="M0 0 C0 0.66 0 1.32 0 2 C-5.29230769 5.07692308 -5.29230769 5.07692308 -8.875 4.6875 C-9.57625 4.460625 -10.2775 4.23375 -11 4 C-4.625 -0.25 -4.625 -0.25 0 0 Z " fill="#2F1C9B" transform="translate(239,269)"/>
<path d="M0 0 C0 0.66 0 1.32 0 2 C-1.57725347 2.70133599 -3.16211333 3.385583 -4.75 4.0625 C-5.63171875 4.44535156 -6.5134375 4.82820312 -7.421875 5.22265625 C-10.15256309 6.04600008 -11.36901347 5.9773992 -14 5 C-12.23244474 4.15973604 -10.46082737 3.32801278 -8.6875 2.5 C-7.70136719 2.0359375 -6.71523438 1.571875 -5.69921875 1.09375 C-3 0 -3 0 0 0 Z " fill="#170D79" transform="translate(304,246)"/>
<path d="M0 0 C0.99 0 1.98 0 3 0 C3 3.3 3 6.6 3 10 C2.34 10 1.68 10 1 10 C-0.60725635 6.78548731 -0.05748185 3.56387464 0 0 Z " fill="#5A2CC0" transform="translate(163,198)"/>
<path d="M0 0 C5.94 2.475 5.94 2.475 12 5 C11.67 5.66 11.34 6.32 11 7 C6.87248551 6.39301257 3.6678852 4.96189209 0 3 C0 2.01 0 1.02 0 0 Z " fill="#4612A8" transform="translate(183,162)"/>
<path d="M0 0 C5.98993047 -0.3152595 9.63560356 0.31780178 15 3 C15 3.66 15 4.32 15 5 C13.06077578 4.54901762 11.12366406 4.08894441 9.1875 3.625 C8.10855469 3.36976562 7.02960938 3.11453125 5.91796875 2.8515625 C3 2 3 2 0 0 Z " fill="#3F158F" transform="translate(193,88)"/>
<path d="M0 0 C2.99220268 1.36370299 5.29026529 2.94908083 7.75 5.125 C8.67039063 5.93324219 8.67039063 5.93324219 9.609375 6.7578125 C10.06828125 7.16773437 10.5271875 7.57765625 11 8 C10.34 8.66 9.68 9.32 9 10 C7.49410612 8.71520959 5.99542625 7.42195918 4.5 6.125 C3.6646875 5.40570313 2.829375 4.68640625 1.96875 3.9453125 C1.3190625 3.30335937 0.669375 2.66140625 0 2 C0 1.34 0 0.68 0 0 Z " fill="#3B119D" transform="translate(244,61)"/>
<path d="M0 0 C3.63 1.98 7.26 3.96 11 6 C11 6.66 11 7.32 11 8 C6.38486888 6.68139111 2.90102388 4.78644563 -1 2 C-0.67 1.34 -0.34 0.68 0 0 Z " fill="#411598" transform="translate(76,243)"/>
<path d="M0 0 C0.66 0.33 1.32 0.66 2 1 C1.55149342 2.81495662 1.09090429 4.62693134 0.625 6.4375 C0.24214844 7.95150391 0.24214844 7.95150391 -0.1484375 9.49609375 C-1 12 -1 12 -3 13 C-2.52060632 8.28596212 -2.03165952 4.33420699 0 0 Z " fill="#370B8F" transform="translate(126,212)"/>
<path d="M0 0 C0.66 0 1.32 0 2 0 C1.34 3.63 0.68 7.26 0 11 C-0.66 10.67 -1.32 10.34 -2 10 C-2.25 3.375 -2.25 3.375 0 0 Z " fill="#41139B" transform="translate(117,211)"/>
<path d="M0 0 C0.33 0.99 0.66 1.98 1 3 C0.38125 3.2475 -0.2375 3.495 -0.875 3.75 C-3.35068687 5.20628639 -3.95125002 6.37812506 -5 9 C-5.66 8.01 -6.32 7.02 -7 6 C-4.69 4.02 -2.38 2.04 0 0 Z " fill="#370F99" transform="translate(136,201)"/>
<path d="M0 0 C3.57967992 1.65215996 6.77982952 3.73124352 10 6 C10 6.33 10 6.66 10 7 C7.8125 7.3125 7.8125 7.3125 5 7 C2.1875 4.625 2.1875 4.625 0 2 C0 1.34 0 0.68 0 0 Z " fill="#44189F" transform="translate(129,179)"/>
<path d="M0 0 C2.3129482 2.3129482 2.49580975 3.47904875 3.125 6.625 C3.29257812 7.44226563 3.46015625 8.25953125 3.6328125 9.1015625 C3.81457031 10.04128906 3.81457031 10.04128906 4 11 C3.01 10.67 2.02 10.34 1 10 C0.234375 7.96875 0.234375 7.96875 -0.25 5.5 C-0.42015625 4.6853125 -0.5903125 3.870625 -0.765625 3.03125 C-0.84296875 2.3609375 -0.9203125 1.690625 -1 1 C-0.67 0.67 -0.34 0.34 0 0 Z " fill="#391192" transform="translate(256,72)"/>
<path d="M0 0 C-0.33 1.65 -0.66 3.3 -1 5 C-5.75 6.125 -5.75 6.125 -8 5 C-2.25 0 -2.25 0 0 0 Z " fill="#301BA8" transform="translate(247,250)"/>
<path d="M0 0 C1.98 0.99 1.98 0.99 4 2 C4 4.64 4 7.28 4 10 C3.01 9.67 2.02 9.34 1 9 C0.67 6.03 0.34 3.06 0 0 Z " fill="#4A27BE" transform="translate(211,215)"/>
<path d="M0 0 C1.9955516 3.99110319 2.19546065 5.69986566 2 10 C0.68 10 -0.64 10 -2 10 C-1.34 6.7 -0.68 3.4 0 0 Z " fill="#541CAA" transform="translate(114,132)"/>
<path d="M0 0 C2.78211944 0.37596209 4.5879284 0.67318459 6.8125 2.4375 C8 4 8 4 8 6 C4.65750371 5.40312566 2.53563658 4.26396123 0 2 C0 1.34 0 0.68 0 0 Z " fill="#3313A3" transform="translate(241,192)"/>
<path d="M0 0 C4.24822374 0.47202486 6.19989709 2.96655518 9 6 C8.01 6.495 8.01 6.495 7 7 C5.82780457 6.21654285 4.66236332 5.42297164 3.5 4.625 C2.8503125 4.18414062 2.200625 3.74328125 1.53125 3.2890625 C1.0259375 2.86367187 0.520625 2.43828125 0 2 C0 1.34 0 0.68 0 0 Z " fill="#45179A" transform="translate(134,172)"/>
<path d="M0 0 C0.66 0.33 1.32 0.66 2 1 C2 3.31 2 5.62 2 8 C1.01 8.33 0.02 8.66 -1 9 C-1.09765625 2.84765625 -1.09765625 2.84765625 -1 1 C-0.67 0.67 -0.34 0.34 0 0 Z " fill="#451BBA" transform="translate(218,162)"/>
<path d="M0 0 C1.43931117 0.45261358 2.87638999 0.91232979 4.3125 1.375 C5.11300781 1.63023438 5.91351563 1.88546875 6.73828125 2.1484375 C9 3 9 3 12 5 C10 6 10 6 7.6171875 5.22265625 C6.71226562 4.83980469 5.80734375 4.45695312 4.875 4.0625 C3.50988281 3.49208984 3.50988281 3.49208984 2.1171875 2.91015625 C1.41851562 2.60980469 0.71984375 2.30945312 0 2 C0 1.34 0 0.68 0 0 Z " fill="#3F198A" transform="translate(230,55)"/>
<path d="M0 0 C0.99 0.66 1.98 1.32 3 2 C0.66666667 4.33333333 -1.66666667 6.66666667 -4 9 C-4.66 8.34 -5.32 7.68 -6 7 C-4.02 4.69 -2.04 2.38 0 0 Z " fill="#1C0A92" transform="translate(258,250)"/>
<path d="M0 0 C0.66 0 1.32 0 2 0 C2 0.66 2 1.32 2 2 C4.64 1.67 7.28 1.34 10 1 C10.33 1.66 10.66 2.32 11 3 C7.04 3 3.08 3 -1 3 C-0.67 2.01 -0.34 1.02 0 0 Z " fill="#3C13A2" transform="translate(218,170)"/>
<path d="M0 0 C3.40312738 1.05875074 6.01353231 2.00902154 9 4 C9 4.66 9 5.32 9 6 C5.59687262 4.94124926 2.98646769 3.99097846 0 2 C0 1.34 0 0.68 0 0 Z " fill="#391493" transform="translate(195,168)"/>
<path d="M0 0 C2.52259061 1.97420135 2.9929808 2.96745642 3.6875 6.1875 C3.790625 7.115625 3.89375 8.04375 4 9 C3.34 9 2.68 9 2 9 C0.4375 6.1875 0.4375 6.1875 -1 3 C-0.67 2.01 -0.34 1.02 0 0 Z " fill="#2F179D" transform="translate(315,130)"/>
<path d="M0 0 C0 0.66 0 1.32 0 2 C-3.3 2.33 -6.6 2.66 -10 3 C-10 2.34 -10 1.68 -10 1 C-6.78548731 -0.60725635 -3.56387464 -0.05748185 0 0 Z " fill="#5223A9" transform="translate(191,134)"/>
<path d="M0 0 C4.7517398 0.43197635 6.92000054 1.32769295 10 5 C9.01 5.33 8.02 5.66 7 6 C5.17578125 5.0390625 5.17578125 5.0390625 3.3125 3.625 C2.68988281 3.16351563 2.06726563 2.70203125 1.42578125 2.2265625 C0.95527344 1.82179688 0.48476562 1.41703125 0 1 C0 0.67 0 0.34 0 0 Z " fill="#3C108E" transform="translate(208,93)"/>
<path d="M0 0 C0.66 1.32 1.32 2.64 2 4 C2.66 4 3.32 4 4 4 C3.67 5.32 3.34 6.64 3 8 C1.35 6.35 -0.3 4.7 -2 3 C-1 1 -1 1 0 0 Z " fill="#4829BB" transform="translate(163,263)"/>
<path d="M0 0 C0.928125 0.20625 1.85625 0.4125 2.8125 0.625 C-0.37512365 2.75008244 -2.45262223 3.1270163 -6.1875 3.625 C-6.1875 2.965 -6.1875 2.305 -6.1875 1.625 C-3.1875 -0.375 -3.1875 -0.375 0 0 Z " fill="#241389" transform="translate(227.1875,263.375)"/>
<path d="M0 0 C0.99 0.99 1.98 1.98 3 3 C2.34 4.98 1.68 6.96 1 9 C0.01 8.67 -0.98 8.34 -2 8 C-1.34 5.36 -0.68 2.72 0 0 Z " fill="#2A0E89" transform="translate(211,220)"/>
<path d="M0 0 C3.34373475 0.55728913 6.03312999 1.35173889 9 3 C9 3.66 9 4.32 9 5 C4.68607774 4.5206753 2.83430453 3.2542015 0 0 Z " fill="#4216AB" transform="translate(173,193)"/>
<path d="M0 0 C4.75 1.875 4.75 1.875 7 3 C6.67 3.99 6.34 4.98 6 6 C2.535 4.02 2.535 4.02 -1 2 C-0.67 1.34 -0.34 0.68 0 0 Z " fill="#4715A6" transform="translate(202,137)"/>
<path d="M0 0 C0 0.66 0 1.32 0 2 C-2.64 2.66 -5.28 3.32 -8 4 C-8.33 3.34 -8.66 2.68 -9 2 C-3.375 -1.125 -3.375 -1.125 0 0 Z " fill="#471095" transform="translate(158,104)"/>
<path d="M0 0 C0.66 0 1.32 0 2 0 C1.01 3.3 0.02 6.6 -1 10 C-1.66 9.01 -2.32 8.02 -3 7 C-1.59459459 1.59459459 -1.59459459 1.59459459 0 0 Z " fill="#5C0EB5" transform="translate(127,71)"/>
<path d="M0 0 C3.63 0.66 7.26 1.32 11 2 C11 2.33 11 2.66 11 3 C9.54176788 3.0270043 8.08339325 3.04639787 6.625 3.0625 C5.81289062 3.07410156 5.00078125 3.08570313 4.1640625 3.09765625 C2 3 2 3 0 2 C0 1.34 0 0.68 0 0 Z " fill="#3E1687" transform="translate(218,52)"/>
<path d="M0 0 C1.62463842 -0.05395478 3.24978541 -0.09277195 4.875 -0.125 C5.77992188 -0.14820312 6.68484375 -0.17140625 7.6171875 -0.1953125 C10 0 10 0 12 2 C8.70303895 3.09898702 7.59505097 2.87124444 4.3125 2.0625 C3.50425781 1.86785156 2.69601562 1.67320313 1.86328125 1.47265625 C0.94095703 1.23869141 0.94095703 1.23869141 0 1 C0 0.67 0 0.34 0 0 Z " fill="#341991" transform="translate(287,113)"/>
<path d="M0 0 C1.32 0.66 2.64 1.32 4 2 C0.04 3.98 0.04 3.98 -4 6 C-3 2 -3 2 0 0 Z " fill="#501598" transform="translate(145,97)"/>
<path d="M0 0 C-0.66 1.32 -1.32 2.64 -2 4 C-3.65 4 -5.3 4 -7 4 C-7.33 3.34 -7.66 2.68 -8 2 C-2.25 0 -2.25 0 0 0 Z " fill="#2C1994" transform="translate(228,273)"/>
<path d="M0 0 C0.66 0.66 1.32 1.32 2 2 C1.625 4.125 1.625 4.125 1 6 C-0.32 6.33 -1.64 6.66 -3 7 C-2.01 4.69 -1.02 2.38 0 0 Z " fill="#1C0D7C" transform="translate(264,240)"/>
<path d="M0 0 C0.99 0.33 1.98 0.66 3 1 C1.35 2.65 -0.3 4.3 -2 6 C-2.33 5.34 -2.66 4.68 -3 4 C-2.67 3.01 -2.34 2.02 -2 1 C-1.34 0.67 -0.68 0.34 0 0 Z " fill="#2B1A9F" transform="translate(251,258)"/>
<path d="M0 0 C2.2477975 2.05233685 3.0022242 3.00667261 4 6 C3.01 6.33 2.02 6.66 1 7 C0.34 5.02 -0.32 3.04 -1 1 C-0.67 0.67 -0.34 0.34 0 0 Z " fill="#4C1DAA" transform="translate(64,226)"/>
<path d="M0 0 C0.99 0.33 1.98 0.66 3 1 C1.6875 3 1.6875 3 0 5 C-0.99 5 -1.98 5 -3 5 C-1.125 1.125 -1.125 1.125 0 0 Z " fill="#430D91" transform="translate(136,115)"/>
</svg>
